<?xml version="1.0" encoding="utf-8"?>
<!-- Generator: Adobe Illustrator 24.3.0, SVG Export Plug-In . SVG Version: 6.00 Build 0)  -->
<svg version="1.1" id="Layer_1" xmlns="http://www.w3.org/2000/svg" xmlns:xlink="http://www.w3.org/1999/xlink" x="0px" y="0px"
	 viewBox="0 0 92.55 97.32" style="enable-background:new 0 0 92.55 97.32;" xml:space="preserve">
<style type="text/css">
	.st0{fill:#FF5D00;}
	.st1{fill:#626262;}
	.st2{fill:#FFEFE5;enable-background:new    ;}
</style>
<g>
	<g>
		<g>
			<path class="st0" d="M68.83,1.69L22.61,18.37c-0.67,0.24-1.23,0.59-1.68,1.03c-0.1,0.09-0.2,0.2-0.29,0.3
				c-0.03,0.03-0.06,0.07-0.08,0.1c-0.22,0.26-0.41,0.55-0.55,0.85c-0.02,0.04-0.04,0.08-0.06,0.12c-0.05,0.11-0.09,0.21-0.13,0.32
				c-0.04,0.11-0.08,0.22-0.11,0.33c-0.03,0.11-0.06,0.22-0.08,0.33c-0.02,0.08-0.04,0.17-0.05,0.25c-0.01,0.07-0.02,0.14-0.03,0.21
				c-0.01,0.1-0.02,0.21-0.03,0.31c0,0.09-0.01,0.17-0.01,0.26c0,0.09,0,0.19,0.01,0.29c0,0.04,0,0.07,0,0.11
				c0,0.07,0.01,0.14,0.02,0.21c0,0.01,0,0.02,0,0.03c0.01,0.06,0.01,0.11,0.03,0.17c0.04,0.28,0.11,0.55,0.21,0.82
				c0.01,0.04,0.03,0.08,0.05,0.13c0.03,0.08,0.06,0.17,0.1,0.25c0.02,0.05,0.04,0.11,0.08,0.16c0,0.01,0,0.01,0.01,0.02
				c0.02,0.04,0.04,0.09,0.07,0.14c0.13,0.23,0.28,0.46,0.45,0.66c0.06,0.08,0.12,0.15,0.19,0.22c0.25,0.26,0.53,0.5,0.85,0.71
				c0.05,0.04,0.11,0.08,0.17,0.1c0.02,0.02,0.04,0.03,0.07,0.04c0.03,0.02,0.05,0.04,0.08,0.05c0,0,0.01,0,0.01,0.01
				c0.05,0.03,0.11,0.06,0.16,0.08c0,0,0.01,0.01,0.02,0.01c0.05,0.03,0.1,0.05,0.15,0.07c0.01,0,0.02,0.01,0.03,0.01
				c0.1,0.04,0.2,0.08,0.3,0.12l22.7,8.38c0.44,0.16,0.86,0.35,1.26,0.57c0.09,0.04,0.18,0.09,0.27,0.15
				c0.67,0.39,1.28,0.86,1.83,1.38c0.03,0.02,0.05,0.04,0.07,0.07c0.16,0.15,0.3,0.31,0.44,0.46c0.09,0.11,0.19,0.21,0.28,0.32
				c0.09,0.11,0.18,0.22,0.26,0.33c0.08,0.11,0.16,0.22,0.24,0.33c0.08,0.12,0.16,0.24,0.23,0.36c0.05,0.08,0.1,0.17,0.15,0.25
				c0.08,0.12,0.15,0.25,0.21,0.38c0,0,0,0.01,0.01,0.01c0.06,0.12,0.12,0.25,0.18,0.38c0.07,0.15,0.14,0.3,0.2,0.45
				c0.05,0.13,0.1,0.27,0.15,0.4c0.1,0.28,0.18,0.56,0.25,0.85c0.03,0.09,0.05,0.19,0.07,0.28c0.03,0.12,0.05,0.24,0.07,0.36
				c0.02,0.11,0.04,0.22,0.05,0.33c0.05,0.33,0.08,0.66,0.09,1c0.01,0.14,0.01,0.28,0.01,0.42v24.42l18.88-6.66
				c4.06-1.43,6.77-5.27,6.77-9.57V7.62C77.26,3.26,72.93,0.22,68.83,1.69z M74.23,50.75l-19.71,8.32
				c-0.08,0.04-0.17,0.05-0.26,0.05c-0.26,0-0.51-0.15-0.62-0.41c-0.14-0.34,0.02-0.74,0.36-0.88l19.71-8.32
				c0.34-0.14,0.73,0.02,0.88,0.36C74.73,50.21,74.57,50.61,74.23,50.75z M74.23,45.03l-19.71,8.32c-0.08,0.04-0.17,0.05-0.26,0.05
				c-0.26,0-0.51-0.15-0.62-0.41c-0.14-0.34,0.02-0.73,0.36-0.87L73.7,43.8c0.34-0.14,0.73,0.02,0.88,0.36
				C74.73,44.5,74.57,44.89,74.23,45.03z M74.23,39.32l-19.71,8.32c-0.08,0.04-0.17,0.05-0.26,0.05c-0.26,0-0.51-0.16-0.62-0.41
				c-0.14-0.34,0.02-0.73,0.36-0.87l19.71-8.32c0.34-0.14,0.73,0.01,0.88,0.36C74.73,38.79,74.57,39.18,74.23,39.32z M74.23,33.61
				l-19.71,8.32c-0.08,0.04-0.17,0.05-0.26,0.05c-0.26,0-0.51-0.15-0.62-0.41c-0.14-0.34,0.02-0.74,0.36-0.88l19.71-8.32
				c0.34-0.14,0.73,0.02,0.88,0.36C74.73,33.07,74.57,33.47,74.23,33.61z"/>
			<path class="st1" d="M22.44,79.49c-4.05,1.45-4.05,7.17,0,8.62l21.08,7.53c3.94,1.41,8.09-1.51,8.09-5.7V69.07L22.44,79.49z"/>
			<path class="st2" d="M22.45,79.49l29.17-10.42V44.65c0-4.06-2.53-7.69-6.33-9.09l-22.7-8.38c-3.44-1.27-3.98-5.56-1.64-7.78
				c-3.31,1.37-5.64,4.64-5.64,8.45v50.43c0,2.79,1.06,5.35,2.81,7.28s4.19,3.23,6.97,3.5l-2.63-0.94
				C18.4,86.67,18.4,80.94,22.45,79.49z"/>
		</g>
		<g>
			<path class="st1" d="M38.85,66.6l12.76,2.47v-6.99L38.63,59.7c-1.41-0.26-2.77,0.67-3.04,2.08v0
				C35.15,64.01,36.61,66.17,38.85,66.6z"/>
			
				<ellipse transform="matrix(0.8924 -0.4513 0.4513 0.8924 -24.3433 24.2525)" class="st0" cx="38.68" cy="63.17" rx="1.4" ry="1.66"/>
		</g>
	</g>
</g>
</svg>
