<?xml version="1.0" encoding="utf-8"?>
<!-- Generator: Adobe Illustrator 26.0.1, SVG Export Plug-In . SVG Version: 6.00 Build 0)  -->
<svg version="1.1" id="Layer_1" xmlns="http://www.w3.org/2000/svg" xmlns:xlink="http://www.w3.org/1999/xlink" x="0px" y="0px"
	 viewBox="0 0 500 190.3" style="enable-background:new 0 0 500 190.3;" xml:space="preserve">
<style type="text/css">
	.st0{fill:#626262;}
	.st1{fill:#FF5D00;}
	.st2{fill:#FFFFFF;}
</style>
<g>
	<g>
		<g>
			<path class="st0" d="M208.3,133.7c-1.4-1.1-3.1-1.4-5-1c-0.3,0-0.5,0.1-0.8,0.1c-0.4,0.1-0.8,0.2-1.3,0.2
				c-0.7,0.1-1.3-0.4-1.4-1.1c-0.1-0.6-0.1-1.4-0.1-2.6V84.6c0-5.3-4.3-9.6-9.6-9.6h0c-5.3,0-9.6,4.3-9.6,9.6v45.8
				c0,9.6,2,20.6,17.3,20.6c2.5,0,4.7-0.3,7.1-1.1c3.8-1,5.7-3.5,5.7-7.6v-3C210.6,138.3,210.6,135.5,208.3,133.7z"/>
			<path class="st0" d="M190.3,71.2c6.2,0,10.9-4.8,10.9-11.2c0-6.3-4.8-11.2-10.9-11.2c-6.4,0-11.2,4.8-11.2,11.2
				C179.1,66.5,183.8,71.2,190.3,71.2z"/>
			<path class="st1" d="M417.3,71.2c6.2,0,10.9-4.8,10.9-11.2c0-6.3-4.8-11.2-10.9-11.2c-6.4,0-11.2,4.8-11.2,11.2
				C406.1,66.5,410.8,71.2,417.3,71.2z"/>
			<path class="st0" d="M250.7,102.6l-1.3-0.3c-9.6-2.2-12.4-3.3-12.4-6.4c0-2.1,0-5,11.3-5c6.2,0,11.7,0.7,16,2l0.4,0.1
				c1.2,0.3,4,0.9,6.3-1c2.3-1.9,2.3-4.6,2.3-5.6v-3.6c0-5.3-4.5-6.7-6-7.1c-4.6-1.4-11.8-2.2-19.1-2.2c-19.8,0-29.8,7.7-29.8,22.9
				c0,18.1,16.4,21.6,24.3,23.3l1.2,0.3c9.7,2.1,13.2,3.5,13.2,7.4c0,2.2,0,6.4-12.8,6.4c-6.3,0-11.9-0.8-17.6-2.5l-0.4-0.1
				c-1.3-0.3-4-0.8-6.3,1.1c-2.3,1.8-2.3,4.7-2.3,5.7v3.4c0,4,2.1,6.6,6.4,7.5c8.1,2.2,14.2,2.6,20.9,2.6c20.4,0,30.7-8.1,30.7-24.2
				C275.7,108.3,258.8,104.5,250.7,102.6z"/>
			<path class="st0" d="M350.7,130.5c-1.8-1.3-4-1.5-6.8-0.6l-0.5,0.2c-4.7,1.7-10.6,3.8-17.9,3.8c-9.4,0-15.4-3.3-18.2-10h9.3
				c29.4,0,35.6-13.8,35.6-25.4c0-15.4-11.5-25-30.1-25c-22.2,0-35.4,14.6-35.4,39c0,24.8,13.9,39,38.2,39c10.3,0,18.3-2.4,23.2-4.4
				c3.7-1.6,5.3-4,5.3-8v-2.3C353.4,133.2,351.9,131.4,350.7,130.5z M322.5,90.4c10.8,0,10.8,5.8,10.8,8c0,2.7,0,9.1-17.3,9.1h-10.4
				C306.4,98.9,310.4,90.4,322.5,90.4z"/>
			<path class="st0" d="M396.1,133.7c-1.4-1.1-3.1-1.4-5-1c-0.3,0-0.5,0.1-0.8,0.1c-0.4,0.1-0.8,0.2-1.3,0.2
				c-0.7,0.1-1.3-0.4-1.4-1.1c-0.1-0.6-0.1-1.4-0.1-2.6V40.9c0-5.3-4.3-9.6-9.6-9.6l0,0c-5.3,0-9.6,4.3-9.6,9.6v89.6
				c0,9.6,2,20.6,17.3,20.6c2.5,0,4.7-0.3,7.1-1.1c3.8-1,5.7-3.5,5.7-7.6v-3C398.4,138.3,398.4,135.5,396.1,133.7z"/>
			<path class="st1" d="M455.2,134.7l-0.4,12.5c-4.8,2.7-10.9,4.2-17.6,4.2c-18.9,0-29.8-11.9-29.8-32.8V75h11.1
				c5.4,0,8.3,2.9,8.3,8.3v34.2c0,14.3,7.9,15.9,13.8,15.9c3.4,0,6.3-0.7,8.6-2.1C451.9,129.7,455.3,131.6,455.2,134.7z"/>
			<path class="st0" d="M439.6,177.3c25.8,0,40.6-14.7,40.6-40.3V83.3c0-5.5-2.7-8.3-8.1-8.3h-2.8c-5.4,0-8.3,2.9-8.3,8.3v28v7.2
				c-0.1,0.7-0.2,1.3-0.3,2l-0.8,26.8c-2.4,8.6-9.1,12.4-21,12.4c-7.2,0-11.6-1.3-16.1-2.8c-1-0.4-3.9-1.4-6.5,0.4
				c-1.8,1.2-2.7,3.2-2.7,6v3c0,3.9,2,6.5,5.8,7.8"/>
		</g>
		<g>
			<circle class="st0" cx="94.1" cy="40.3" r="27.3"/>
			<path class="st0" d="M53.3,60.4L35.8,48c-4.6-3.2-10.9-2.2-14.1,2.4l0,0c-3.2,4.6-2.2,10.9,2.4,14.1l28,19.8v56.1
				c0,5.6,4.5,10.1,10.1,10.1h0c5.6,0,10.1-4.5,10.1-10.1V78.4c0-2.8-1.4-5.5-3.7-7.1L53.3,60.4z"/>
			<path class="st0" d="M134.9,60.4L152.4,48c4.6-3.2,10.9-2.2,14.1,2.4l0,0c3.2,4.6,2.2,10.9-2.4,14.1l-28,19.8v56.1
				c0,5.6-4.5,10.1-10.1,10.1h0c-5.6,0-10.1-4.5-10.1-10.1V78.4c0-2.8,1.4-5.5,3.7-7.1L134.9,60.4z"/>
			<path class="st1" d="M133.2,147.6L133.2,147.6c-4,4-10.4,4-14.3,0L87,115.7c-4-4-4-10.4,0-14.3l0,0c4-4,10.4-4,14.3,0l31.9,31.9
				C137.2,137.2,137.2,143.6,133.2,147.6z"/>
			<path class="st1" d="M101.2,101.3L101.2,101.3c-4-4-10.4-4-14.3,0L55,133.3c-4,4-4,10.4,0,14.3l0,0c4,4,10.4,4,14.3,0l31.9-31.9
				C105.2,111.7,105.2,105.3,101.2,101.3z"/>
			<circle class="st2" cx="94.1" cy="52.8" r="11.4"/>
		</g>
	</g>
	<g>
		<path class="st0" d="M70.5,155.7h5.1 M73.1,162.4"/>
	</g>
</g>
</svg>
